%TF.GenerationSoftware,KiCad,Pcbnew,8.0.1*%
%TF.CreationDate,2024-09-23T14:02:09+05:30*%
%TF.ProjectId,SCARA,53434152-412e-46b6-9963-61645f706362,rev?*%
%TF.SameCoordinates,Original*%
%TF.FileFunction,Paste,Top*%
%TF.FilePolarity,Positive*%
%FSLAX46Y46*%
G04 Gerber Fmt 4.6, Leading zero omitted, Abs format (unit mm)*
G04 Created by KiCad (PCBNEW 8.0.1) date 2024-09-23 14:02:09*
%MOMM*%
%LPD*%
G01*
G04 APERTURE LIST*
G04 Aperture macros list*
%AMRoundRect*
0 Rectangle with rounded corners*
0 $1 Rounding radius*
0 $2 $3 $4 $5 $6 $7 $8 $9 X,Y pos of 4 corners*
0 Add a 4 corners polygon primitive as box body*
4,1,4,$2,$3,$4,$5,$6,$7,$8,$9,$2,$3,0*
0 Add four circle primitives for the rounded corners*
1,1,$1+$1,$2,$3*
1,1,$1+$1,$4,$5*
1,1,$1+$1,$6,$7*
1,1,$1+$1,$8,$9*
0 Add four rect primitives between the rounded corners*
20,1,$1+$1,$2,$3,$4,$5,0*
20,1,$1+$1,$4,$5,$6,$7,0*
20,1,$1+$1,$6,$7,$8,$9,0*
20,1,$1+$1,$8,$9,$2,$3,0*%
G04 Aperture macros list end*
%ADD10RoundRect,0.250000X0.250000X0.475000X-0.250000X0.475000X-0.250000X-0.475000X0.250000X-0.475000X0*%
%ADD11RoundRect,0.200000X0.200000X0.275000X-0.200000X0.275000X-0.200000X-0.275000X0.200000X-0.275000X0*%
%ADD12RoundRect,0.225000X0.250000X-0.225000X0.250000X0.225000X-0.250000X0.225000X-0.250000X-0.225000X0*%
%ADD13RoundRect,0.225000X0.225000X0.250000X-0.225000X0.250000X-0.225000X-0.250000X0.225000X-0.250000X0*%
%ADD14RoundRect,0.250000X-1.000000X-0.650000X1.000000X-0.650000X1.000000X0.650000X-1.000000X0.650000X0*%
%ADD15R,1.450000X0.600000*%
%ADD16R,1.450000X0.300000*%
%ADD17RoundRect,0.243750X0.243750X0.456250X-0.243750X0.456250X-0.243750X-0.456250X0.243750X-0.456250X0*%
%ADD18RoundRect,0.200000X0.275000X-0.200000X0.275000X0.200000X-0.275000X0.200000X-0.275000X-0.200000X0*%
%ADD19R,2.000000X0.800000*%
%ADD20R,1.498600X3.606800*%
%ADD21R,5.400000X2.900000*%
%ADD22R,3.606800X1.498600*%
%ADD23RoundRect,0.200000X-0.200000X-0.275000X0.200000X-0.275000X0.200000X0.275000X-0.200000X0.275000X0*%
%ADD24RoundRect,0.225000X-0.225000X-0.250000X0.225000X-0.250000X0.225000X0.250000X-0.225000X0.250000X0*%
%ADD25RoundRect,0.250000X-0.650000X1.000000X-0.650000X-1.000000X0.650000X-1.000000X0.650000X1.000000X0*%
%ADD26RoundRect,0.225000X-0.250000X0.225000X-0.250000X-0.225000X0.250000X-0.225000X0.250000X0.225000X0*%
%ADD27R,0.508000X0.927100*%
%ADD28R,0.900000X1.500000*%
%ADD29R,0.800000X0.800000*%
%ADD30R,2.800000X1.000000*%
%ADD31RoundRect,0.250000X-2.050000X-0.300000X2.050000X-0.300000X2.050000X0.300000X-2.050000X0.300000X0*%
%ADD32RoundRect,0.250000X-2.025000X-2.375000X2.025000X-2.375000X2.025000X2.375000X-2.025000X2.375000X0*%
%ADD33RoundRect,0.250000X-0.250000X-0.475000X0.250000X-0.475000X0.250000X0.475000X-0.250000X0.475000X0*%
%ADD34R,1.250000X0.600000*%
G04 APERTURE END LIST*
D10*
%TO.C,C10*%
X6809386Y-51174880D03*
X4909386Y-51174880D03*
%TD*%
D11*
%TO.C,R5*%
X2894706Y-56371720D03*
X1244706Y-56371720D03*
%TD*%
D12*
%TO.C,C8*%
X10696786Y-56798740D03*
X10696786Y-55248740D03*
%TD*%
D13*
%TO.C,C3*%
X38196180Y-49430900D03*
X36646180Y-49430900D03*
%TD*%
D14*
%TO.C,D3*%
X75963246Y-53549780D03*
X79963246Y-53549780D03*
%TD*%
D15*
%TO.C,J3*%
X83099426Y-60426900D03*
X83099426Y-59626900D03*
D16*
X83099426Y-58426900D03*
X83099426Y-57426900D03*
X83099426Y-56926900D03*
X83099426Y-55926900D03*
D15*
X83099426Y-54726900D03*
X83099426Y-53926900D03*
X83099426Y-53926900D03*
X83099426Y-54726900D03*
D16*
X83099426Y-55426900D03*
X83099426Y-56426900D03*
X83099426Y-57926900D03*
X83099426Y-58926900D03*
D15*
X83099426Y-59626900D03*
X83099426Y-60426900D03*
%TD*%
D17*
%TO.C,D2*%
X33032940Y-49616360D03*
X31157940Y-49616360D03*
%TD*%
D18*
%TO.C,R8*%
X14831060Y-53436020D03*
X14831060Y-51786020D03*
%TD*%
D11*
%TO.C,R18*%
X49785666Y-56289700D03*
X48135666Y-56289700D03*
%TD*%
D19*
%TO.C,SW2*%
X1898226Y-25155700D03*
X1898226Y-29355700D03*
%TD*%
D20*
%TO.C,C1*%
X75481646Y-30149400D03*
X75481646Y-38455200D03*
%TD*%
D21*
%TO.C,L1*%
X46144180Y-36147200D03*
X46144180Y-46047200D03*
%TD*%
D22*
%TO.C,C2*%
X55768240Y-49834800D03*
X64074040Y-49834800D03*
%TD*%
D23*
%TO.C,R13*%
X37910000Y-27160220D03*
X39560000Y-27160220D03*
%TD*%
D18*
%TO.C,R3*%
X5181206Y-56347090D03*
X5181206Y-54697090D03*
%TD*%
D24*
%TO.C,C4*%
X35515880Y-43830200D03*
X37065880Y-43830200D03*
%TD*%
D11*
%TO.C,R9*%
X29629446Y-47723020D03*
X27979446Y-47723020D03*
%TD*%
D25*
%TO.C,D1*%
X37487860Y-35702240D03*
X37487860Y-39702240D03*
%TD*%
D23*
%TO.C,R17*%
X60180720Y-26921460D03*
X61830720Y-26921460D03*
%TD*%
D18*
%TO.C,R14*%
X17284700Y-27103840D03*
X17284700Y-25453840D03*
%TD*%
%TO.C,R15*%
X19847560Y-27103840D03*
X19847560Y-25453840D03*
%TD*%
%TO.C,R7*%
X13284120Y-53451260D03*
X13284120Y-51801260D03*
%TD*%
D23*
%TO.C,R16*%
X60180720Y-25356820D03*
X61830720Y-25356820D03*
%TD*%
D18*
%TO.C,R1*%
X33811840Y-47494960D03*
X33811840Y-45844960D03*
%TD*%
D11*
%TO.C,R4*%
X6892666Y-52996060D03*
X5242666Y-52996060D03*
%TD*%
D23*
%TO.C,R11*%
X82584366Y-26889940D03*
X84234366Y-26889940D03*
%TD*%
D26*
%TO.C,C7*%
X5418666Y-26277800D03*
X5418666Y-27827800D03*
%TD*%
D27*
%TO.C,U2*%
X8876947Y-54760090D03*
X7926946Y-54760090D03*
X6976945Y-54760090D03*
X6976945Y-57287390D03*
X7926946Y-57287390D03*
X8876947Y-57287390D03*
%TD*%
D28*
%TO.C,U3*%
X8146626Y-48639960D03*
X9416626Y-48639960D03*
X10686626Y-48639960D03*
X11956626Y-48639960D03*
X13226626Y-48639960D03*
X14496626Y-48639960D03*
X15766626Y-48639960D03*
X17036626Y-48639960D03*
X18306626Y-48639960D03*
X19576626Y-48639960D03*
X20846626Y-48639960D03*
X22116626Y-48639960D03*
X23386626Y-48639960D03*
X24656626Y-48639960D03*
X24656626Y-31139960D03*
X23386626Y-31139960D03*
X22116626Y-31139960D03*
X20846626Y-31139960D03*
X19576626Y-31139960D03*
X18306626Y-31139960D03*
X17036626Y-31139960D03*
X15766626Y-31139960D03*
X14496626Y-31139960D03*
X13226626Y-31139960D03*
X11956626Y-31139960D03*
X10686626Y-31139960D03*
X9416626Y-31139960D03*
X8146626Y-31139960D03*
D29*
X12616626Y-42644960D03*
X13866626Y-42644960D03*
X15116626Y-42644960D03*
X12616626Y-41394960D03*
X13866626Y-41394960D03*
X15116626Y-41394960D03*
X12616626Y-40144960D03*
X13866626Y-40144960D03*
X15116626Y-40144960D03*
%TD*%
D30*
%TO.C,LED1*%
X20362206Y-61294320D03*
X15962206Y-61294320D03*
X20362206Y-59394320D03*
X15962206Y-59394320D03*
X20362206Y-57494320D03*
X15962206Y-57494320D03*
%TD*%
D26*
%TO.C,C9*%
X10068166Y-50892640D03*
X10068166Y-52442640D03*
%TD*%
D18*
%TO.C,R6*%
X11725326Y-53457840D03*
X11725326Y-51807840D03*
%TD*%
D23*
%TO.C,R12*%
X37902380Y-25605740D03*
X39552380Y-25605740D03*
%TD*%
D11*
%TO.C,R19*%
X60690966Y-56300600D03*
X59040966Y-56300600D03*
%TD*%
D23*
%TO.C,R10*%
X82556426Y-25332920D03*
X84206426Y-25332920D03*
%TD*%
D26*
%TO.C,C11*%
X8440026Y-50892640D03*
X8440026Y-52442640D03*
%TD*%
D31*
%TO.C,U1*%
X55422800Y-35008560D03*
X55422800Y-36708560D03*
X55422800Y-38408560D03*
D32*
X62147800Y-35633560D03*
X62147800Y-41183560D03*
X66997800Y-35633560D03*
X66997800Y-41183560D03*
D31*
X55422800Y-40108560D03*
X55422800Y-41808560D03*
%TD*%
D11*
%TO.C,R20*%
X27731366Y-56289700D03*
X26081366Y-56289700D03*
%TD*%
D19*
%TO.C,SW1*%
X1635366Y-50680160D03*
X1635366Y-54880160D03*
%TD*%
D33*
%TO.C,C5*%
X79190386Y-61576180D03*
X81090386Y-61576180D03*
%TD*%
D23*
%TO.C,R2*%
X27902640Y-49616360D03*
X29552640Y-49616360D03*
%TD*%
D11*
%TO.C,R21*%
X38933846Y-56289700D03*
X37283846Y-56289700D03*
%TD*%
D34*
%TO.C,IC1*%
X38031420Y-47619960D03*
X38031420Y-46669960D03*
X38031420Y-45719960D03*
X35531420Y-45719960D03*
X35531420Y-47619960D03*
%TD*%
M02*
